<svg width="44" height="40" viewBox="0 0 44 40" fill="none" xmlns="http://www.w3.org/2000/svg">
<g clip-path="url(#clip0_1_175)">
<rect x="9.35721" y="8.5" width="23" height="23" rx="4.5" fill="white" stroke="white"/>
<path d="M24.6773 13.0029L22.6214 13C20.3116 13 18.819 14.3523 18.819 16.4454V18.034H16.7519C16.5733 18.034 16.4286 18.1619 16.4286 18.3196V20.6213C16.4286 20.779 16.5734 20.9067 16.7519 20.9067H18.819V26.7145C18.819 26.8723 18.9636 27 19.1423 27H21.8393C22.0179 27 22.1625 26.8721 22.1625 26.7145V20.9067H24.5795C24.7581 20.9067 24.9027 20.779 24.9027 20.6213L24.9037 18.3196C24.9037 18.2439 24.8696 18.1713 24.8091 18.1177C24.7485 18.0641 24.6661 18.034 24.5803 18.034H22.1625V16.6873C22.1625 16.0401 22.3372 15.7115 23.292 15.7115L24.6769 15.7111C24.8554 15.7111 25 15.5832 25 15.4256V13.2884C25 13.1309 24.8556 13.0032 24.6773 13.0029Z" fill="black"/>
</g>
<defs>
<clipPath id="clip0_1_175">
<rect width="42.8571" height="40" fill="white" transform="translate(0.857147)"/>
</clipPath>
</defs>
</svg>
