<svg width="44" height="40" viewBox="0 0 44 40" fill="none" xmlns="http://www.w3.org/2000/svg">
<rect x="9.21429" y="8.5" width="23" height="23" rx="4.5" fill="white" stroke="white"/>
<path d="M23.9601 13H17.8972C15.4332 13 13.4286 14.871 13.4286 17.1707V22.8293C13.4286 25.129 15.4332 27 17.8972 27H23.9601C26.4241 27 28.4287 25.129 28.4287 22.8293V17.1707C28.4286 14.871 26.424 13 23.9601 13ZM26.9197 22.8293C26.9197 24.3549 25.5946 25.5916 23.9601 25.5916H17.8972C16.2627 25.5916 14.9376 24.3549 14.9376 22.8293V17.1707C14.9376 15.6451 16.2627 14.4084 17.8972 14.4084H23.9601C25.5946 14.4084 26.9197 15.6451 26.9197 17.1707V22.8293Z" fill="black"/>
<path d="M24.6787 16C24.9746 16 25.2144 15.7761 25.2144 15.5C25.2144 15.2239 24.9746 15 24.6787 15C24.3829 15 24.143 15.2239 24.143 15.5C24.143 15.7761 24.3829 16 24.6787 16Z" fill="black"/>
<path d="M20.9287 16C18.5656 16 16.643 17.7944 16.643 20C16.643 22.2056 18.5656 24 20.9287 24C23.2919 24 25.2144 22.2056 25.2144 20C25.2144 17.7944 23.2919 16 20.9287 16ZM20.9287 22.4442C19.4824 22.4442 18.31 21.3499 18.31 20C18.31 18.6501 19.4825 17.5559 20.9287 17.5559C22.375 17.5559 23.5474 18.6501 23.5474 20C23.5474 21.3499 22.375 22.4442 20.9287 22.4442Z" fill="black"/>
</svg>
