<svg width="68" height="16" viewBox="0 0 68 16" fill="none" xmlns="http://www.w3.org/2000/svg">
<path d="M6.87861 5.68311H0.624806C0.279735 5.68311 0 5.98011 0 6.3465V12.9865C0 13.3529 0.279735 13.6499 0.624806 13.6499H6.87861C7.22369 13.6499 7.50342 13.3529 7.50342 12.9865V6.3465C7.50342 5.98011 7.22369 5.68311 6.87861 5.68311Z" fill="white"/>
<path d="M20.6771 11.8577C20.6771 11.8577 20.6771 11.6334 21.448 11.6334C22.2606 11.6334 22.2427 11.8577 22.2427 11.8577C22.1831 13.5832 20.2717 15.0663 17.8139 15.0663C14.8892 15.0663 12.9182 13.1781 12.9182 10.3746V9.32027C12.9182 6.51871 14.8892 4.63049 17.6311 4.63049C20.2717 4.63049 22.2626 6.57828 22.2626 9.32027V10.0708C22.2626 10.0708 22.2626 10.3349 21.5314 10.3349H14.6826V10.7002C14.6826 12.65 15.9641 13.746 17.8119 13.746C19.4988 13.746 20.6771 12.7909 20.6771 11.8577ZM17.7106 6.01042C16.0039 6.01042 14.6826 7.14812 14.6826 9.0959V9.17731H20.6969C20.6353 7.16797 19.2962 6.01042 17.7106 6.01042Z" fill="white"/>
<path d="M33.1452 14.7404C33.1452 14.7404 33.1452 15.0243 32.2511 15.0243C31.357 15.0243 31.3769 14.7404 31.3769 14.7404V8.38679C31.3769 8.38679 31.3769 6.05184 28.9191 6.05184H25.9526V14.7424C25.9526 14.7424 25.9526 15.0263 25.0585 15.0263C24.1644 15.0263 24.1843 14.7424 24.1843 14.7424V5.09681C24.1843 5.09681 24.5698 4.66992 28.9191 4.66992C33.1452 4.66992 33.1452 8.38481 33.1452 8.38481V14.7404Z" fill="white"/>
<path d="M36.0628 0.921867C36.0628 0.921867 36.0628 0.637939 36.9767 0.637939C37.8907 0.637939 37.8907 0.921867 37.8907 0.921867V6.95186H39.3968L43.8872 0.921867C43.8872 0.921867 44.0282 0.679636 45.1051 0.679636C46.041 0.679636 46.041 0.921867 46.041 0.921867L40.7876 7.617L46.5496 14.7648C46.5496 14.7648 46.5496 15.0091 45.6337 15.0091C44.5786 15.0091 44.4157 14.7648 44.4157 14.7648L39.4484 8.51247H37.8589V14.7648C37.8589 14.7648 37.8589 15.0488 36.9648 15.0488C36.031 15.0488 36.031 14.7648 36.031 14.7648L36.0628 0.921867Z" fill="white"/>
<path d="M47.5108 9.31989C47.5108 6.51834 49.5831 4.63806 52.3131 4.63806C55.0431 4.63806 57.1274 6.52628 57.1274 9.32783V10.3821C57.1214 13.1757 55.0948 15.066 52.3131 15.066C49.5315 15.066 47.5108 13.1757 47.5108 10.3742V9.31989ZM49.2791 10.5787C49.2791 12.5265 50.5587 13.6443 52.3072 13.6443C54.0556 13.6443 55.3531 12.5265 55.3531 10.5787V9.11737C55.3531 7.1676 54.0338 6.04976 52.3072 6.04976C50.5805 6.04976 49.2791 7.1676 49.2791 9.11737V10.5787Z" fill="white"/>
<path d="M59.069 8.46621C59.069 8.46621 59.069 4.71161 63.2733 4.71161C64.6145 4.71161 65.5702 4.73147 66.2537 4.77118V0.283928C66.2537 0.283928 66.2537 0 67.1259 0C67.9981 0 68.0001 0.283928 68.0001 0.283928V14.5975C68.0001 14.5975 67.6147 15.0243 63.2654 15.0243C59.069 15.0243 59.069 11.2678 59.069 11.2678V8.46621ZM66.2616 6.0836H63.2813C60.8235 6.0836 60.8235 8.46621 60.8235 8.46621V11.2678C60.8235 11.2678 60.8235 13.6504 63.2813 13.6504H66.2616V6.0836Z" fill="white"/>
</svg>
