<svg width="43" height="40" viewBox="0 0 43 40" fill="none" xmlns="http://www.w3.org/2000/svg">
<rect x="8.5" y="8.5" width="23" height="23" rx="4.5" fill="white" stroke="white"/>
<path d="M28.4805 23.2249C28.4597 23.1883 28.4404 23.1579 28.4224 23.1336C28.125 22.6955 27.5566 22.1577 26.7176 21.5201L26.6999 21.5055L26.691 21.4983L26.6821 21.491H26.673C26.2923 21.1941 26.0512 20.9945 25.9502 20.8923C25.7654 20.6976 25.724 20.5005 25.825 20.3008C25.8963 20.1499 26.1643 19.8313 26.6283 19.3446C26.8724 19.0866 27.0657 18.8798 27.2084 18.724C28.2379 17.6046 28.6842 16.8892 28.5473 16.5777L28.4941 16.5049C28.4584 16.4611 28.3662 16.421 28.2176 16.3844C28.0687 16.3479 27.8783 16.3419 27.6462 16.3662L25.0757 16.3807C25.034 16.3687 24.9746 16.3698 24.8971 16.3844C24.8197 16.399 24.781 16.4064 24.781 16.4064L24.7363 16.4247L24.7008 16.4466C24.671 16.4612 24.6383 16.4867 24.6026 16.5232C24.567 16.5596 24.5373 16.6023 24.5135 16.651C24.2337 17.2399 23.9155 17.7874 23.5584 18.2935C23.3382 18.5954 23.136 18.8569 22.9513 19.0784C22.7669 19.2998 22.6122 19.4629 22.4873 19.5674C22.3623 19.6721 22.2494 19.7559 22.1481 19.8193C22.0469 19.8826 21.9696 19.9094 21.9161 19.8996C21.8625 19.8898 21.812 19.8801 21.7642 19.8704C21.681 19.8266 21.614 19.767 21.5635 19.6915C21.5128 19.6161 21.4787 19.5211 21.4608 19.4068C21.4431 19.2923 21.4326 19.1939 21.4296 19.1111C21.4268 19.0284 21.4281 18.9115 21.4341 18.7606C21.4403 18.6097 21.4431 18.5076 21.4431 18.454C21.4431 18.269 21.4475 18.0683 21.4563 17.8517C21.4653 17.6351 21.4726 17.4635 21.4787 17.3371C21.4848 17.2106 21.4876 17.0767 21.4876 16.9355C21.4876 16.7944 21.4771 16.6837 21.4563 16.6033C21.4358 16.5231 21.4044 16.4452 21.3629 16.3697C21.3211 16.2943 21.26 16.2359 21.1799 16.1945C21.0996 16.1531 20.9997 16.1203 20.8809 16.0959C20.5655 16.0375 20.1639 16.0059 19.6758 16.001C18.5691 15.9913 17.858 16.0498 17.5426 16.1763C17.4177 16.2298 17.3046 16.3028 17.2035 16.3953C17.0964 16.5024 17.0814 16.5608 17.1588 16.5704C17.5159 16.6142 17.7686 16.7188 17.9174 16.8843L17.971 16.972C18.0127 17.0353 18.0544 17.1473 18.096 17.3078C18.1377 17.4684 18.1645 17.6461 18.1763 17.8406C18.206 18.196 18.206 18.5002 18.1763 18.7532C18.1465 19.0064 18.1184 19.2034 18.0915 19.3446C18.0647 19.4857 18.0245 19.6001 17.971 19.6877C17.9174 19.7753 17.8817 19.8288 17.8639 19.8483C17.846 19.8677 17.8311 19.88 17.8193 19.8848C17.742 19.909 17.6615 19.9213 17.5783 19.9213C17.4949 19.9213 17.3938 19.8872 17.2748 19.8191C17.1559 19.7509 17.0324 19.6573 16.9045 19.538C16.7765 19.4187 16.6322 19.252 16.4715 19.0379C16.3109 18.8238 16.1443 18.5707 15.9717 18.2787L15.8289 18.0669C15.7397 17.9307 15.6177 17.7323 15.463 17.472C15.3082 17.2115 15.1714 16.9596 15.0524 16.7163C15.0049 16.6141 14.9334 16.5363 14.8383 16.4827L14.7936 16.4607C14.7639 16.4413 14.7162 16.4207 14.6508 16.3987C14.5853 16.3767 14.517 16.361 14.4455 16.3513L11.9999 16.3658C11.75 16.3658 11.5804 16.4121 11.4911 16.5046L11.4554 16.5483C11.4376 16.5727 11.4286 16.6116 11.4286 16.6652C11.4286 16.7187 11.4464 16.7845 11.4821 16.8623C11.8392 17.5486 12.2274 18.2105 12.6469 18.848C13.0663 19.4856 13.4309 19.9992 13.7402 20.3883C14.0496 20.7777 14.365 21.1452 14.6863 21.4907C15.0077 21.8363 15.2204 22.0577 15.3244 22.155C15.4286 22.2525 15.5105 22.3254 15.57 22.3741L15.7932 22.5492C15.936 22.6661 16.1457 22.806 16.4224 22.969C16.6991 23.1321 17.0055 23.2927 17.3417 23.451C17.678 23.609 18.0692 23.738 18.5155 23.8378C18.9618 23.9376 19.3961 23.9777 19.8186 23.9584H20.8451C21.0533 23.9437 21.211 23.8901 21.3182 23.7977L21.3537 23.7611C21.3776 23.7321 21.3999 23.6869 21.4205 23.6262C21.4414 23.5654 21.4518 23.4984 21.4518 23.4255C21.4457 23.2162 21.4652 23.0276 21.5097 22.8597C21.5542 22.6919 21.6049 22.5653 21.6616 22.4801C21.7183 22.395 21.7823 22.3231 21.8534 22.2649C21.9248 22.2065 21.9756 22.1711 22.0054 22.159C22.0351 22.1467 22.0587 22.1384 22.0766 22.1334C22.2194 22.0945 22.3875 22.1322 22.581 22.2467C22.7744 22.361 22.9559 22.5023 23.1256 22.6701C23.2951 22.8381 23.4989 23.0266 23.7369 23.2358C23.975 23.4451 24.1832 23.6007 24.3617 23.7031L24.5401 23.7907C24.6593 23.8492 24.814 23.9027 25.0044 23.9514C25.1945 24 25.3611 24.0122 25.5041 23.9878L27.789 23.9587C28.015 23.9587 28.1908 23.9281 28.3156 23.8674C28.4405 23.8065 28.5148 23.7395 28.5387 23.6666C28.5626 23.5936 28.5639 23.5108 28.5433 23.4183C28.5221 23.3259 28.5013 23.2614 28.4805 23.2249Z" fill="#070707"/>
</svg>
