<svg width="44" height="40" viewBox="0 0 44 40" fill="none" xmlns="http://www.w3.org/2000/svg">
<rect x="9.07141" y="8.5" width="23" height="23" rx="4.5" fill="white" stroke="white"/>
<path fill-rule="evenodd" clip-rule="evenodd" d="M20.4942 13C17.6089 13.0003 15.6096 13.0099 14.5833 14.0121C13.5812 15.0381 13.5716 17.1313 13.5716 19.9228C16.6712 19.8293 18.0887 19.7517 19.2192 18.6477C20.323 17.5172 20.4007 16.0998 20.4942 13ZM14.5831 25.9882C13.581 24.9622 13.5714 22.869 13.5714 20.0775C16.671 20.171 18.0885 20.2486 19.219 21.3525C20.3229 22.4831 20.4005 23.9005 20.494 27C17.6087 27 15.6094 26.9907 14.5831 25.9882ZM20.6488 27C20.7423 23.9005 20.82 22.4831 21.9239 21.3525C23.0543 20.2486 24.4718 20.171 27.5714 20.0775C27.5711 22.869 27.5615 24.9622 26.5594 25.9882C25.5332 26.9907 23.5342 27 20.6488 27ZM20.6488 13C20.7423 16.0998 20.82 17.5172 21.9239 18.6477C23.0543 19.7517 24.4718 19.8293 27.5714 19.9228C27.5711 17.1313 27.5615 15.0381 26.5594 14.0121C25.5332 13.0099 23.5342 13.0003 20.6488 13Z" fill="black"/>
<path fill-rule="evenodd" clip-rule="evenodd" d="M21.9239 21.3525C20.82 22.4831 20.7423 23.9005 20.6488 27C23.5342 27 25.5332 26.9907 26.5594 25.9882C27.5615 24.9622 27.5711 22.869 27.5714 20.0775C24.4718 20.171 23.0543 20.2486 21.9239 21.3525ZM13.5714 20.0775C13.5714 22.869 13.581 24.9622 14.5831 25.9882C15.6094 26.9907 17.6087 27 20.494 27C20.4005 23.9005 20.3229 22.4831 19.219 21.3525C18.0885 20.2486 16.671 20.171 13.5714 20.0775ZM20.4942 13C17.6089 13.0003 15.6096 13.0099 14.5833 14.0121C13.5812 15.0381 13.5716 17.1313 13.5716 19.9228C16.6712 19.8293 18.0887 19.7517 19.2192 18.6477C20.323 17.5172 20.4007 16.0998 20.4942 13ZM21.9239 18.6477C20.82 17.5172 20.7423 16.0998 20.6488 13C23.5342 13.0003 25.5332 13.0099 26.5594 14.0121C27.5615 15.0381 27.5711 17.1313 27.5714 19.9228C24.4718 19.8293 23.0543 19.7517 21.9239 18.6477Z" fill="url(#paint0_linear_1_197)"/>
<defs>
<linearGradient id="paint0_linear_1_197" x1="27.5714" y1="27" x2="27.5714" y2="13" gradientUnits="userSpaceOnUse">
<stop stop-color="white" stop-opacity="0.01"/>
<stop offset="0.47509" stop-color="white" stop-opacity="0.01"/>
<stop offset="0.76042" stop-color="white" stop-opacity="0.04271"/>
<stop offset="0.99531" stop-color="white" stop-opacity="0.09855"/>
<stop offset="1" stop-color="white" stop-opacity="0.1"/>
</linearGradient>
</defs>
</svg>
